<svg width="60" height="50" viewBox="0 0 60 50" fill="none" xmlns="http://www.w3.org/2000/svg">
<path d="M32.5867 38.0287L22.5874 36.3583L14.2017 33.2909C12.3439 32.6113 10.3263 33.7887 10.0009 35.7426C9.75032 37.2467 10.6065 38.7157 12.0373 39.237L21.6157 42.727L31.5282 44.383L32.5867 38.0287Z" fill="#A34F41"/>
<path d="M46.9624 21.3789C51.846 16.4882 51.846 8.55875 46.9624 3.66804C42.0788 -1.22268 34.161 -1.22268 29.2774 3.66804L26.1662 6.78373C25.6948 7.25586 24.9304 7.25586 24.4589 6.78373L21.3478 3.66804C16.4642 -1.22268 8.54629 -1.22268 3.66269 3.66804C-1.2209 8.55875 -1.2209 16.4882 3.66269 21.3789L23.5362 41.2814C24.5173 42.2639 26.1078 42.2639 27.0889 41.2814L46.9624 21.3789Z" fill="#FB6A3B"/>
<path d="M46.9639 21.3772L27.0903 41.2797C26.108 42.2634 24.5178 42.2634 23.5382 41.2797L21.1416 38.8796L40.4549 19.5356C45.3385 14.6449 45.3385 6.71504 40.4549 1.82691V1.82444C39.744 1.11244 38.9677 0.503596 38.1438 0.000488281C41.3368 0.00553461 44.5271 1.22815 46.9639 3.66858C51.8475 8.55906 51.8475 16.4864 46.9639 21.3772Z" fill="#FB5532"/>
<path d="M27.6935 39.0561H17.5562L8.78084 37.4123C6.83661 37.0482 5.04004 38.542 5.04004 40.5229C5.04004 42.0477 6.12588 43.3556 7.62281 43.6341L17.6441 45.4982H27.6935V39.0561Z" fill="#BA5D4F"/>
<path d="M59.9995 37.5442H57.1665C55.9723 37.5442 54.8189 37.9795 53.9217 38.7689L43.0101 48.3697C41.8158 49.4206 40.2803 50.0002 38.6904 50.0002H19.7925L9.77125 48.1361C8.2742 47.8576 7.18848 46.5496 7.18848 45.0248C7.18848 43.044 8.98505 41.5501 10.9293 41.9143L19.7046 43.5581H32.2349L44.7274 31.0475L48.1616 21.8369H59.9996V37.5442H59.9995Z" fill="#C86F5C"/>
<path d="M29.7903 37.3512L23.7446 36.1692C21.7437 35.7781 19.8332 37.1732 19.5932 39.2005C19.3919 40.901 20.4456 42.4987 22.0863 42.9809L31.0589 45.6181C32.262 45.9954 33.5714 45.8001 34.6125 45.0882L49.8654 34.6573V21.8369H46.7111C39.3169 21.8369 32.7526 33.5206 31.0921 36.7234C30.8456 37.1989 30.3154 37.4539 29.7903 37.3512Z" fill="#C86F5C"/>
<path d="M31.0928 36.723C30.8462 37.1985 30.316 37.4536 29.7909 37.3509L23.7453 36.169C21.7444 35.7774 19.8332 37.1731 19.5936 39.2005C19.5774 39.3404 19.5686 39.4788 19.5686 39.6157C19.5686 40.9496 20.3287 42.1658 21.5107 42.7548C22.0797 41.1573 23.7469 40.1517 25.4832 40.4918L31.0554 41.5811C31.8562 41.7377 32.6649 41.353 33.0482 40.6316C35.0068 36.9456 41.3449 26.1601 48.4491 26.1601H60.0001V21.8374H46.711C39.3172 21.8373 32.7532 33.5204 31.0928 36.723Z" fill="#BA5D4F"/>
<path d="M46.0903 39.3872L35.2434 46.8043C34.3959 47.3847 33.4145 47.6832 32.4185 47.6832C31.9162 47.6832 31.4116 47.6071 30.9168 47.4536L21.952 44.818C20.7894 44.4759 19.8382 44.0091 19.1331 43.4506L19.7041 43.5583H24.0948L31.4347 45.7152C31.4395 45.7163 31.4443 45.7188 31.4504 45.72C32.3945 46.0162 33.405 45.865 34.2222 45.3065L45.0691 37.8894C45.482 37.6064 46.0458 37.7129 46.327 38.1263C46.6093 38.5396 46.5031 39.1042 46.0903 39.3872Z" fill="#BA5D4F"/>
<path d="M28.9681 21.0837C28.7503 20.3475 28.2807 19.6778 27.5773 19.2154C26.1892 18.303 24.3055 18.5551 23.2046 19.7998C22.6116 20.4703 22.3344 21.2988 22.3509 22.1155C22.3699 23.0576 22.0346 23.9598 21.416 24.6698C20.7461 25.4386 20.4249 26.5049 20.6571 27.6035C20.9999 29.226 22.5051 30.3731 24.1581 30.2731C24.6775 30.2418 25.159 30.0967 25.5822 29.8649C26.412 29.4104 27.3773 29.2847 28.2957 29.5114C28.7631 29.6268 29.2645 29.6437 29.7736 29.5416C31.3846 29.2185 32.5459 27.7442 32.4805 26.1C32.431 24.8541 31.7324 23.8171 30.745 23.2664C29.8923 22.7909 29.2455 22.0209 28.9681 21.0837Z" fill="#64B9FC"/>
<path d="M32.4811 26.0997C32.5455 27.7439 31.3853 29.2183 29.774 29.5411C29.2652 29.644 28.7637 29.627 28.295 29.5113C28.2824 29.5083 28.2684 29.5056 28.2558 29.5027C28.7217 28.8931 28.9846 28.1287 28.9529 27.3217C28.9038 26.0765 28.2057 25.0394 27.2177 24.4882C26.3644 24.0124 25.7178 23.2429 25.4407 22.3049C25.2233 21.5694 24.7526 20.8989 24.0502 20.4371C23.7357 20.2312 23.3953 20.0834 23.0459 19.9948C23.0952 19.929 23.1491 19.864 23.2048 19.8004C24.3049 18.5547 26.1888 18.3032 27.5769 19.2153C28.2808 19.677 28.75 20.3476 28.9674 21.0831C29.2461 22.021 29.8926 22.7904 30.7444 23.2664C31.7324 23.8175 32.4305 24.8547 32.4811 26.0997Z" fill="#31A7FB"/>
<path d="M21.1222 16.5552C22.4547 16.5552 23.5349 15.4734 23.5349 14.1389C23.5349 12.8045 22.4547 11.7227 21.1222 11.7227C19.7897 11.7227 18.7095 12.8045 18.7095 14.1389C18.7095 15.4734 19.7897 16.5552 21.1222 16.5552Z" fill="#64B9FC"/>
<path d="M23.5148 13.8274C23.6867 15.1507 22.7548 16.363 21.4336 16.5351C21.09 16.5798 20.7535 16.5497 20.4417 16.4572C21.2331 15.9757 21.7102 15.0582 21.5831 14.0791C21.4558 13.0999 20.7601 12.3353 19.8721 12.0727C20.1498 11.9033 20.4674 11.7879 20.811 11.7431C22.1322 11.571 23.3427 12.5042 23.5148 13.8274Z" fill="#31A7FB"/>
<path d="M28.5888 15.5825C29.9213 15.5825 31.0015 14.5007 31.0015 13.1663C31.0015 11.8318 29.9213 10.75 28.5888 10.75C27.2562 10.75 26.176 11.8318 26.176 13.1663C26.176 14.5007 27.2562 15.5825 28.5888 15.5825Z" fill="#64B9FC"/>
<path d="M30.9813 12.8543C31.1532 14.1776 30.2213 15.3899 28.9001 15.5621C28.5554 15.607 28.219 15.5769 27.9073 15.4843C28.6998 15.0036 29.1769 14.0852 29.0497 13.1059C28.9225 12.1267 28.2266 11.3612 27.3376 11.0996C27.6154 10.9303 27.9329 10.8149 28.2776 10.7699C29.5987 10.5979 30.8094 11.531 30.9813 12.8543Z" fill="#31A7FB"/>
<path d="M16.9215 22.9673C18.254 22.9673 19.3342 21.8855 19.3342 20.551C19.3342 19.2166 18.254 18.1348 16.9215 18.1348C15.589 18.1348 14.5088 19.2166 14.5088 20.551C14.5088 21.8855 15.589 22.9673 16.9215 22.9673Z" fill="#64B9FC"/>
<path d="M19.3136 20.2395C19.4855 21.5628 18.5536 22.7751 17.2324 22.9474C16.8877 22.9923 16.5513 22.9622 16.2396 22.8696C17.0321 22.3889 17.5091 21.4704 17.382 20.4912C17.2547 19.512 16.5589 18.7465 15.6699 18.4849C15.9477 18.3155 16.2652 18.2002 16.6099 18.1552C17.9311 17.9831 19.1417 18.9162 19.3136 20.2395Z" fill="#31A7FB"/>
<path d="M34.2877 20.7046C35.6203 20.7046 36.7005 19.6228 36.7005 18.2883C36.7005 16.9539 35.6203 15.8721 34.2877 15.8721C32.9552 15.8721 31.875 16.9539 31.875 18.2883C31.875 19.6228 32.9552 20.7046 34.2877 20.7046Z" fill="#64B9FC"/>
<path d="M36.6806 17.9762C36.8525 19.2995 35.9206 20.5118 34.5993 20.6841C34.2558 20.7288 33.9193 20.6986 33.6075 20.6062C34.3988 20.1247 34.876 19.2072 34.7489 18.2281C34.6216 17.2488 33.9259 16.4843 33.0378 16.2216C33.3156 16.0523 33.6331 15.9369 33.9767 15.8921C35.298 15.7198 36.5087 16.6529 36.6806 17.9762Z" fill="#31A7FB"/>
</svg>
