<svg width="100" height="100" viewBox="0 0 100 100" fill="none" xmlns="http://www.w3.org/2000/svg">
<path d="M15.3193 44.393L36.4633 23.249C39.5608 20.1514 44.5773 20.1514 47.6749 23.249C50.7724 26.3413 50.7724 31.3683 47.6749 34.4606L32.1393 50.0014L47.6749 65.537C50.7724 68.6345 50.7724 73.651 47.6749 76.7485C46.1313 78.3026 44.1015 79.0744 42.0717 79.0744C40.0419 79.0744 38.012 78.3026 36.4633 76.7538L15.3193 55.6099C12.227 52.5123 12.227 47.4906 15.3193 44.393Z" fill="#FFED04"/>
<path d="M52.3212 44.393L73.4652 23.249C76.5628 20.1514 81.5792 20.1514 84.6768 23.249C87.7744 26.3413 87.7744 31.3683 84.6768 34.4606L69.1413 50.0014L84.6768 65.537C87.7744 68.6345 87.7744 73.651 84.6768 76.7485C83.1333 78.3026 81.1035 79.0744 79.0736 79.0744C77.0438 79.0744 75.014 78.3026 73.4652 76.7538L52.3212 55.6099C49.2289 52.5123 49.2289 47.4906 52.3212 44.393Z" fill="#FFED04"/>
</svg>
