<svg width="50" height="42" viewBox="0 0 50 42" fill="none" xmlns="http://www.w3.org/2000/svg">
<path d="M10.7898 7.88452H5.45898C5.37768 7.88452 5.29717 7.90054 5.22205 7.93165C5.14693 7.96277 5.07868 8.00837 5.02119 8.06586C4.96369 8.12336 4.91809 8.19161 4.88697 8.26673C4.85586 8.34185 4.83984 8.42236 4.83984 8.50366V10.0626H11.4086V8.50366C11.4086 8.33952 11.3434 8.1821 11.2274 8.066C11.1114 7.9499 10.954 7.88463 10.7898 7.88452Z" fill="#2F3A5A"/>
<path d="M35.9824 10.4312H14.0176L16.0684 1.42422C16.1306 1.11715 16.2971 0.841054 16.5397 0.642715C16.7822 0.444377 17.0859 0.335996 17.3992 0.335938H32.6008C32.914 0.335977 33.2177 0.444303 33.4602 0.642564C33.7027 0.840825 33.8693 1.11683 33.9316 1.42383L35.9824 10.4312Z" fill="#43567C"/>
<path d="M46.7715 9.60083H3.22852C1.44546 9.60083 0 11.0463 0 12.8293V38.4348C0 40.2179 1.44546 41.6633 3.22852 41.6633H46.7715C48.5545 41.6633 50 40.2179 50 38.4348V12.8293C50 11.0463 48.5545 9.60083 46.7715 9.60083Z" fill="#43567C"/>
<path d="M30.1325 34.8984C35.5477 31.7627 37.6387 25.0739 34.8028 19.9586C31.9669 14.8433 25.2781 13.2385 19.8629 16.3742C14.4477 19.51 12.3568 26.1988 15.1926 31.3141C18.0285 36.4294 24.7173 38.0342 30.1325 34.8984Z" fill="#526D93"/>
<path d="M28.8432 32.5727C32.8987 30.2243 34.4646 25.215 32.3408 21.3841C30.217 17.5532 25.2077 16.3514 21.1523 18.6998C17.0968 21.0482 15.5309 26.0575 17.6547 29.8883C19.7785 33.7192 24.7877 34.921 28.8432 32.5727Z" fill="#384868"/>
<path d="M27.7325 30.569C30.6166 28.8989 31.7302 25.3365 30.2198 22.6121C28.7095 19.8877 25.1471 19.033 22.263 20.7031C19.3789 22.3732 18.2653 25.9356 19.7756 28.66C21.286 31.3843 24.8484 32.239 27.7325 30.569Z" fill="#4FA4D1"/>
<g opacity="0.5">
<path opacity="0.5" d="M22.3671 25.5984C23.4937 25.3816 24.2312 24.2925 24.0144 23.1658C23.7976 22.0392 22.7085 21.3017 21.5818 21.5185C20.4552 21.7354 19.7177 22.8245 19.9345 23.9511C20.1513 25.0777 21.2404 25.8153 22.3671 25.5984Z" fill="#DBE2EB"/>
</g>
<path d="M30.7441 3.12734V7.36094C30.744 7.49973 30.6888 7.63281 30.5907 7.73095C30.4925 7.82909 30.3595 7.88427 30.2207 7.88437H19.7832C19.7143 7.88479 19.646 7.87153 19.5823 7.84538C19.5186 7.81923 19.4607 7.78069 19.412 7.73201C19.3633 7.68333 19.3247 7.62546 19.2985 7.56177C19.2723 7.49807 19.259 7.42981 19.2593 7.36094V3.12734C19.2594 2.98845 19.3147 2.85527 19.4129 2.75706C19.5111 2.65884 19.6443 2.60362 19.7832 2.60352H30.2207C30.3592 2.60464 30.4918 2.6602 30.5897 2.75821C30.6876 2.85621 30.7431 2.9888 30.7441 3.12734Z" fill="#E1E6E9"/>
<path d="M25.9172 2.60352L23.077 7.88437H21.2789L24.1188 2.60352H25.9172Z" fill="white"/>
<path d="M27.4828 2.60352L24.6426 7.88437H23.741L26.5813 2.60352H27.4828Z" fill="white"/>
<path d="M45.6601 12.5688H42.8629C42.7287 12.5688 42.5958 12.5953 42.4718 12.6466C42.3478 12.698 42.2352 12.7733 42.1403 12.8681C42.0454 12.963 41.9701 13.0757 41.9188 13.1997C41.8674 13.3236 41.841 13.4565 41.841 13.5907C41.841 13.7249 41.8674 13.8578 41.9188 13.9818C41.9701 14.1058 42.0454 14.2184 42.1403 14.3133C42.2352 14.4082 42.3478 14.4835 42.4718 14.5348C42.5958 14.5862 42.7287 14.6126 42.8629 14.6126H45.6601C45.9312 14.6126 46.1911 14.5049 46.3827 14.3133C46.5744 14.1217 46.682 13.8617 46.682 13.5907C46.682 13.3197 46.5744 13.0598 46.3827 12.8681C46.1911 12.6765 45.9312 12.5688 45.6601 12.5688Z" fill="#FFC943"/>
</svg>
