<svg width="100" height="100" viewBox="0 0 100 100" fill="none" xmlns="http://www.w3.org/2000/svg">
<path d="M50 55.8594H32.4219C32.4219 65.5525 40.3068 73.4375 50 73.4375C59.6932 73.4375 67.5781 65.5525 67.5781 55.8594H50Z" fill="#E6455A"/>
<path d="M67.5781 55.8594H50V73.4375C59.6932 73.4375 67.5781 65.5525 67.5781 55.8594Z" fill="#B32437"/>
<path d="M29.4922 20.7032L17.7734 14.4934C6.88438 25.4528 0 41.1413 0 55.8594V88.2813C0 94.7534 5.44199 100 11.9141 100C18.3861 100 23.6328 94.7534 23.6328 88.2813V61.7188L29.4922 56.5918V20.7032Z" fill="#CC7029"/>
<path d="M82.2266 14.4934L70.5078 20.7032V55.8594L76.3672 61.7188V88.2813C76.3672 94.7534 81.6139 100 88.0859 100C94.558 100 100 94.7534 100 88.2813V55.8594C100 41.1413 93.1156 25.4528 82.2266 14.4934Z" fill="#994A0F"/>
<path d="M56.1263 0.498779L51.937 23.4582L76.3673 56.8664V55.8593C76.3673 49.3877 77.7405 44.3695 79.1941 39.0537C80.6845 33.6005 82.2267 27.9615 82.2267 20.7031V14.4933C75.3911 7.61343 66.2653 2.04956 56.1263 0.498779Z" fill="#CC7029"/>
<path d="M43.8406 0.503174C33.6947 2.06353 24.5578 7.66529 17.7734 14.4934V20.7032C17.7734 27.9616 19.3156 33.6006 20.8061 39.0538C22.2596 44.3696 23.6328 49.3877 23.6328 55.8594L48.0287 23.8016L43.8406 0.503174Z" fill="#E68945"/>
<path d="M32.4219 29.4922C34.0399 29.4922 35.3516 28.1805 35.3516 26.5625C35.3516 24.9445 34.0399 23.6328 32.4219 23.6328C30.8039 23.6328 29.4922 24.9445 29.4922 26.5625C29.4922 28.1805 30.8039 29.4922 32.4219 29.4922Z" fill="#463F3F"/>
<path d="M67.5781 29.4922C69.1961 29.4922 70.5078 28.1805 70.5078 26.5625C70.5078 24.9445 69.1961 23.6328 67.5781 23.6328C65.9601 23.6328 64.6484 24.9445 64.6484 26.5625C64.6484 28.1805 65.9601 29.4922 67.5781 29.4922Z" fill="#352C2C"/>
<path d="M64.6312 34.1355C64.6312 34.1355 64.6312 34.1355 64.6312 34.1326C60.6486 31.3631 58.2168 27.5408 57.7963 23.4582L56.1262 0.498828C54.1246 0.192773 52.0871 0 50 0C47.9014 0 45.8529 0.19375 43.8406 0.503125C43.8406 0.503125 42.8561 17.1268 42.1693 23.8016C41.7602 27.8041 39.4027 31.4033 35.5375 33.9324C28.0816 38.8049 23.6328 47.0016 23.6328 55.8594V61.7188C23.6328 69.7955 30.2045 76.3672 38.2812 76.3672C39.4801 76.3672 40.5559 75.6377 41.0021 74.5246L44.6844 65.3207C45.1633 64.124 46.0219 63.1918 47.0705 62.5631L50 58.7891L52.9297 62.5631C53.9783 63.1914 54.8369 64.1227 55.3158 65.318L58.998 74.5248C59.4441 75.6377 60.5199 76.3672 61.7188 76.3672C69.7955 76.3672 76.3672 69.7955 76.3672 61.7188V56.8664C76.3672 47.7484 71.9812 39.2512 64.6312 34.1355Z" fill="#FFF7CC"/>
<path d="M55.3158 65.318L58.998 74.5248C59.4441 75.6377 60.5199 76.3672 61.7188 76.3672C69.7955 76.3672 76.3672 69.7955 76.3672 61.7188V56.8664C76.3672 47.7482 71.9812 39.2512 64.6312 34.1355C64.6312 34.1355 64.6312 34.1355 64.6312 34.1326C60.6486 31.3631 58.2168 27.5408 57.7963 23.4582L56.1262 0.498828C54.1246 0.192773 52.0871 0 50 0V58.7891L52.9297 62.5631C53.9783 63.1914 54.8369 64.1227 55.3158 65.318Z" fill="#FFE6B3"/>
<path d="M50 47.0703C48.3807 47.0703 47.0703 48.3807 47.0703 50V62.5631C47.9393 62.0416 48.9328 61.7188 50 61.7188C51.0672 61.7188 52.0607 62.042 52.9297 62.5631V50C52.9297 48.3807 51.6193 47.0703 50 47.0703Z" fill="#766E6E"/>
<path d="M52.9297 50C52.9297 48.3807 51.6193 47.0703 50 47.0703V61.7188C51.0672 61.7188 52.0607 62.042 52.9297 62.5631V50Z" fill="#5B5555"/>
<path d="M51.4648 38.2853H50H48.5352C43.8768 38.2163 41.2109 39.4063 41.2109 44.1407C41.2109 48.9872 45.1535 52.9298 50 52.9298C54.8465 52.9298 58.7891 48.9872 58.7891 44.1407C58.7891 39.3757 56.1227 38.2567 51.4648 38.2853Z" fill="#463F3F"/>
<path d="M58.7891 44.1402C58.7891 39.3751 56.1227 38.2562 51.4648 38.2847H50V52.9292C54.8465 52.9292 58.7891 48.9867 58.7891 44.1402Z" fill="#352C2C"/>
</svg>
