<!-- Generated by IcoMoon.io -->
<svg version="1.1" xmlns="http://www.w3.org/2000/svg" width="1024" height="1024" viewBox="0 0 1024 1024">
<title></title>
<g id="icomoon-ignore">
</g>
<path fill="#4debf9" d="M81.765 397.981h854.552v579.868h-854.552v-579.868z"></path>
<path fill="#c0f2ed" d="M871.194 397.981h71.043v579.868h-71.043v-579.868z"></path>
<path fill="#de1f8c" d="M630.005 977.848h-236.004v-348.656c0-9.228 7.48-16.708 16.708-16.708h202.588c9.228 0 16.708 7.48 16.708 16.708v348.656z"></path>
<path fill="#b2caec" d="M450.188 866.774v-185.434c0-6.827 5.534-12.361 12.363-12.361h98.898c6.828 0 12.361 5.534 12.361 12.361v185.432c0 6.828-5.533 12.363-12.361 12.363h-98.898c-6.828 0.002-12.363-5.534-12.363-12.36z"></path>
<path fill="#b2caec" d="M81.765 850.575h221.384c9.228 0 16.708-7.48 16.708-16.708v-204.676c0-9.228-7.48-16.708-16.708-16.708h-221.384v238.092z"></path>
<path fill="#9c9c9c" d="M1008.903 1023.999h-993.759c-7.954 0-14.402-6.448-14.402-14.402v-63.498c0-7.953 6.448-14.402 14.402-14.402h993.759c7.955 0 14.402 6.449 14.402 14.402v63.498c0.002 7.955-6.446 14.402-14.402 14.402z"></path>
<path fill="#838383" d="M1008.883 931.697h-71.043c7.955 0 14.402 6.449 14.402 14.402v63.498c0 7.955-6.448 14.402-14.402 14.402h71.043c7.953 0 14.402-6.448 14.402-14.402v-63.498c0.001-7.953-6.449-14.402-14.402-14.402z"></path>
<path fill="#b2caec" d="M720.849 850.575h221.384v-238.092h-221.384c-9.228 0-16.708 7.48-16.708 16.708v204.676c0 9.228 7.48 16.708 16.708 16.708z"></path>
<path fill="#82aee3" d="M871.194 612.483h71.043v238.092h-71.043v-238.092z"></path>
<path fill="#e224c6" d="M915.71 118.548h-813.336c-13.842 0-25.062 11.22-25.062 25.062v45.947h863.462v-45.947c-0.002-13.84-11.222-25.062-25.064-25.062z"></path>
<path fill="#f97cf9" d="M1016.875 493.641l-76.098-304.082c-73.786 0-777.439 0-863.462 0l-76.096 304.082c-2.738 10.944 6.21 21.404 18.31 21.404h979.036c12.1 0.001 21.049-10.46 18.31-21.404z"></path>
<path fill="#fdf046" d="M703.098 327.401h-382.2c-11.534 0-20.886-9.351-20.886-20.886v-285.629c0-11.536 9.352-20.886 20.886-20.886h382.2c11.534 0 20.886 9.35 20.886 20.886v285.63c0 11.534-9.352 20.885-20.886 20.885z"></path>
<path fill="#e02386" d="M921.63 118.548h-71.042c13.842 0 25.061 11.22 25.061 25.062v45.947h71.042v-45.947c0-13.84-11.219-25.062-25.061-25.062z"></path>
<path fill="#e02386" d="M1022.787 493.641l-76.098-304.082c-3.296 0-29.553 0-71.043 0l76.096 304.082c2.738 10.944-6.21 21.404-18.31 21.404h71.043c12.102 0.001 21.050-10.46 18.312-21.404z"></path>
<path fill="#e482f3" d="M533.679 279.811h-43.295c-31.763 0-57.514-25.751-57.514-57.515s25.751-57.514 57.514-57.514h43.295c31.764 0 57.514 25.751 57.514 57.514 0.002 31.764-25.748 57.515-57.514 57.515z"></path>
<path fill="#e482f3" d="M509.039 112.225c18.456 0 33.416-14.961 33.416-33.416s-14.96-33.416-33.416-33.416c-18.455 0-33.415 14.961-33.415 33.416s14.96 33.416 33.415 33.416z"></path>
<path fill="#e482f3" d="M625.516 140.113c18.455 0 33.416-14.961 33.416-33.416s-14.961-33.416-33.416-33.416c-18.455 0-33.416 14.961-33.416 33.416s14.961 33.416 33.416 33.416z"></path>
<path fill="#e482f3" d="M398.487 140.113c18.455 0 33.416-14.961 33.416-33.416s-14.961-33.416-33.416-33.416c-18.455 0-33.416 14.961-33.416 33.416s14.961 33.416 33.416 33.416z"></path>
<path fill="#82aee3" d="M303.149 612.483h-70.084c9.228 0 16.708 7.48 16.708 16.708v204.676c0 9.228-7.48 16.708-16.708 16.708h70.084c9.228 0 16.708-7.48 16.708-16.708v-204.676c0-9.228-7.48-16.708-16.708-16.708z"></path>
<path fill="#82aee3" d="M561.446 668.978h-52.564c6.828 0 12.363 5.534 12.363 12.361v185.432c0 6.828-5.534 12.363-12.363 12.363h52.564c6.828 0 12.363-5.534 12.363-12.363v-185.432c0-6.826-5.534-12.361-12.363-12.361z"></path>
</svg>
