<svg width="60" height="60" viewBox="0 0 60 60" fill="none" xmlns="http://www.w3.org/2000/svg">
<g clip-path="url(#clip0)">
<path d="M58.5503 47.7499C57.3634 49.1749 55.6049 49.9992 53.7503 49.9999H6.2502C4.39559 49.9992 2.63707 49.1749 1.4502 47.7499L24.3752 28.6499L26.7503 30.2749C28.7067 31.6249 31.2939 31.6249 33.2503 30.2749L35.6254 28.6499L58.5503 47.7499Z" fill="#FFED04"/>
<path d="M58.9 12.7252L35.6251 28.6501L33.25 30.2751C31.2936 31.6251 28.7064 31.6251 26.75 30.2751L24.3749 28.6501L1.1001 12.7001C2.27127 11.0113 4.1949 10.0028 6.25014 10.0001H53.7501C55.8146 9.98919 57.7477 11.012 58.9 12.7252Z" fill="#FFF78A"/>
<path d="M24.3751 28.6501L1.45007 47.7502C0.511752 46.6287 -0.00164672 45.2125 0.000111094 43.7502V16.2502C-0.00750609 14.9818 0.376752 13.742 1.10015 12.7002L24.3751 28.6501Z" fill="#FFF354"/>
<path d="M60.0003 16.2499V43.7499C60.0019 45.2122 59.4886 46.6284 58.5503 47.7499L35.6252 28.6498L58.9002 12.7249C59.62 13.7592 60.004 14.9897 60.0003 16.2499Z" fill="#FFF354"/>
</g>
<defs>
<clipPath id="clip0">
<rect width="60" height="60" fill="white"/>
</clipPath>
</defs>
</svg>
