<svg width="100" height="100" viewBox="0 0 100 100" fill="none" xmlns="http://www.w3.org/2000/svg">
<path d="M86.7929 0.730653C88.9077 -0.987707 92.0698 0.517372 92.0698 3.24218V46.6035L56.4722 25.5685L86.7929 0.730653Z" fill="#FFC850"/>
<path d="M88.8336 44.6909L67.1592 31.8835L85.2182 11.5239C86.4809 10.1005 88.8336 10.9934 88.8336 12.8964V44.6909Z" fill="#EBAF4B"/>
<path d="M13.2066 0.730653C11.0916 -0.987707 7.92969 0.517372 7.92969 3.24218V46.6035L43.5273 25.5685L13.2066 0.730653Z" fill="#FFC850"/>
<path d="M11.166 44.6909L32.8404 31.8835L14.7814 11.5239C13.5188 10.1005 11.166 10.9934 11.166 12.8964V44.6909Z" fill="#EBAF4B"/>
<path d="M49.9995 99.9997C75.0217 99.9997 95.3061 80.8022 95.3061 57.1208C95.3061 33.4395 75.0217 14.2419 49.9995 14.2419C24.9773 14.2419 4.69287 33.4395 4.69287 57.1208C4.69287 80.8022 24.9773 99.9997 49.9995 99.9997Z" fill="#FFDC64"/>
<path d="M56.4719 83.8191V87.0553C56.4719 90.6299 53.5742 93.5275 49.9996 93.5275C46.425 93.5275 43.5273 90.6299 43.5273 87.0553V83.8191L49.9996 80.583L56.4719 83.8191Z" fill="#FF8087"/>
<path d="M53.5724 67.1604H46.4263C44.8836 67.1604 44.0293 68.9489 44.9992 70.1487L48.5724 74.5694C49.3068 75.4778 50.692 75.4778 51.4265 74.5694L54.9998 70.1487C55.9695 68.9489 55.1154 67.1604 53.5724 67.1604Z" fill="#5D5360"/>
<path d="M93.6859 85.4371C93.4347 85.4371 93.1795 85.3787 92.9408 85.2547C83.1572 80.1674 67.8449 77.1446 67.6908 77.1145C66.8138 76.9438 66.2417 76.0938 66.4124 75.2166C66.5839 74.3389 67.4253 73.766 68.3103 73.9383C68.955 74.0639 84.2312 77.0781 94.4341 82.3834C95.2265 82.7959 95.5355 83.7723 95.123 84.5657C94.8347 85.1196 94.2707 85.4371 93.6859 85.4371Z" fill="#E1A546"/>
<path d="M96.9246 74.1113C96.7855 74.1113 96.6441 74.0932 96.5035 74.0553C87.4341 71.6172 70.9429 72.0801 70.7802 72.0871C69.8716 72.1133 69.14 71.4115 69.114 70.5188C69.0871 69.6252 69.7896 68.8793 70.6824 68.8526C71.3777 68.8305 87.8183 68.369 97.3443 70.9297C98.207 71.1619 98.7183 72.0492 98.4867 72.9127C98.2922 73.635 97.6388 74.1106 96.9246 74.1113Z" fill="#E1A546"/>
<path d="M61.3259 96.7636C36.3041 96.7636 16.0199 77.5662 16.0199 53.8847C16.0199 36.4951 26.9641 21.5343 42.6836 14.8064C21.1418 18.1173 4.69336 35.7976 4.69336 57.1208C4.69336 80.8023 24.9775 99.9997 49.9994 99.9997C56.6472 99.9997 62.9541 98.6335 68.6418 96.1992C66.2593 96.5654 63.8175 96.7636 61.3259 96.7636Z" fill="#FFC850"/>
<path d="M6.31286 85.4367C5.72829 85.4367 5.16403 85.1199 4.87575 84.5653C4.46325 83.7721 4.77223 82.7955 5.56462 82.383C15.7677 77.0777 31.0437 74.0635 31.6884 73.9379C32.5662 73.7617 33.4148 74.3393 33.5863 75.2162C33.757 76.0932 33.1849 76.9434 32.308 77.1141C32.1539 77.1442 16.8414 80.167 7.05798 85.2543C6.8193 85.3783 6.56423 85.4367 6.31286 85.4367Z" fill="#E1A546"/>
<path d="M3.07463 74.1112C2.36037 74.1112 1.70705 73.6348 1.51271 72.9126C1.28127 72.0491 1.7924 71.1618 2.6551 70.9296C12.1819 68.368 28.6201 68.8327 29.317 68.8524C30.2098 68.8794 30.9121 69.6251 30.8854 70.5186C30.8584 71.4114 30.085 72.1194 29.2192 72.087C29.0533 72.0815 12.5596 71.6169 3.49592 74.0551C3.3551 74.093 3.21369 74.1112 3.07463 74.1112Z" fill="#E1A546"/>
<path d="M31.3918 62.7841C28.277 62.7841 25.7285 60.2357 25.7285 57.1209V53.8847C25.7285 50.7699 28.277 48.2214 31.3918 48.2214C34.5066 48.2214 37.0551 50.7699 37.0551 53.8847V57.1209C37.0551 60.2355 34.5066 62.7841 31.3918 62.7841Z" fill="#4B3F4E"/>
<path d="M31.3915 48.2214C31.1146 48.2214 30.8489 48.2646 30.5825 48.3037V56.3119C30.5825 58.0992 32.0313 59.548 33.8187 59.548C35.606 59.548 37.0548 58.0992 37.0548 56.3119V53.8847C37.0548 50.7699 34.5062 48.2214 31.3915 48.2214Z" fill="#5D5360"/>
<path d="M31.392 54.6944C32.7325 54.6944 33.8191 53.6077 33.8191 52.2672C33.8191 50.9268 32.7325 49.8401 31.392 49.8401C30.0515 49.8401 28.9648 50.9268 28.9648 52.2672C28.9648 53.6077 30.0515 54.6944 31.392 54.6944Z" fill="white"/>
<path d="M68.6076 62.7841C65.4928 62.7841 62.9443 60.2357 62.9443 57.1209V53.8847C62.9443 50.7699 65.4928 48.2214 68.6076 48.2214C71.7225 48.2214 74.2709 50.7699 74.2709 53.8847V57.1209C74.2709 60.2355 71.7225 62.7841 68.6076 62.7841Z" fill="#4B3F4E"/>
<path d="M68.6073 48.2214C68.3304 48.2214 68.0647 48.2646 67.7983 48.3037V56.3119C67.7983 58.0992 69.2472 59.548 71.0345 59.548C72.8218 59.548 74.2706 58.0992 74.2706 56.3119V53.8847C74.2706 50.7699 71.7222 48.2214 68.6073 48.2214Z" fill="#5D5360"/>
<path d="M68.6068 54.6944C69.9473 54.6944 71.034 53.6077 71.034 52.2672C71.034 50.9268 69.9473 49.8401 68.6068 49.8401C67.2664 49.8401 66.1797 50.9268 66.1797 52.2672C66.1797 53.6077 67.2664 54.6944 68.6068 54.6944Z" fill="white"/>
<path d="M51.2512 74.6385L47.678 67.5652C47.6131 67.4367 47.5768 67.2961 47.5278 67.1602H46.4264C44.8836 67.1602 44.0293 68.9486 44.9991 70.1484L48.5723 74.5691C49.2657 75.4266 50.5217 75.4451 51.2799 74.6838C51.2713 74.6672 51.26 74.6559 51.2512 74.6385Z" fill="#4B3F4E"/>
<path d="M49.9996 80.583L43.5273 83.8191V87.0553C43.5273 87.5688 43.6022 88.0619 43.715 88.5408C45.3434 88.3389 46.916 87.8672 48.3815 87.1438V88.6732C48.3815 89.5668 49.1059 90.2914 49.9996 90.2914C50.8934 90.2914 51.6178 89.567 51.6178 88.6732V87.144C53.0834 87.8674 54.6561 88.3391 56.2842 88.5408C56.3971 88.0619 56.4719 87.5686 56.4719 87.0553V83.8191L49.9996 80.583Z" fill="#E6646E"/>
<path d="M58.0899 85.4373C55.801 85.4373 53.5952 84.757 51.7124 83.4699C50.7042 82.781 49.2956 82.781 48.2858 83.4699C46.4038 84.757 44.1979 85.4373 41.909 85.4373C39.1241 85.4373 36.4416 84.407 34.3559 82.5369C33.6907 81.9396 33.6354 80.9164 34.2319 80.2511C34.8284 79.5859 35.8493 79.5306 36.5176 80.1271C39.2346 82.5652 43.487 82.8316 46.46 80.7978C48.5774 79.3519 51.4225 79.3519 53.5383 80.7978C56.5122 82.8306 60.7651 82.5636 63.4823 80.1279C64.1467 79.5322 65.169 79.5859 65.7672 80.2527C66.3637 80.9179 66.3077 81.9412 65.6424 82.5376C63.5563 84.4078 60.8749 85.4373 58.0899 85.4373Z" fill="#EBAF4B"/>
</svg>
