<svg width="45" height="45" viewBox="0 0 45 45" fill="none" xmlns="http://www.w3.org/2000/svg">
<path d="M44.1033 18.7118L38.5752 16.9189C38.3643 16.3125 38.1269 15.7323 37.8632 15.1523L40.3683 10.1161C40.6316 9.61515 40.5263 9.00879 40.1307 8.61337L36.3867 4.86914C35.9911 4.47372 35.3844 4.36816 34.8836 4.63192L29.8477 7.13681C29.2674 6.87305 28.6874 6.60946 28.0811 6.4248L26.2879 0.896397C26.1296 0.369141 25.6025 0 25.0488 0H19.7754C19.2218 0 18.6946 0.369141 18.5362 0.896397L16.7431 6.4248C16.1367 6.60938 15.5566 6.87296 14.9764 7.13681L9.94052 4.63192C9.43972 4.36816 8.83301 4.47372 8.43741 4.86914L4.69345 8.61328C4.29785 9.0087 4.19265 9.61506 4.45588 10.116L6.96094 15.1523C6.69735 15.7323 6.45978 16.3125 6.24894 16.9189L0.89666 18.7118C0.369141 18.87 0 19.371 0 19.9512V25.2246C0 25.8046 0.369141 26.3056 0.896748 26.4638L6.24902 28.2567C6.45987 28.8633 6.69735 29.4433 6.96103 30.0234L4.45597 35.0595C4.19265 35.5605 4.29794 36.1668 4.69354 36.5624L8.4375 40.3065C8.8331 40.7021 9.4398 40.8074 9.94061 40.5439L14.9765 38.039C15.5568 38.3026 16.1368 38.5663 16.7432 38.751L18.5363 44.1034C18.6947 44.6308 19.2219 45 19.7755 45H25.0489C25.6025 45 26.1297 44.6309 26.2881 44.1034L28.0812 38.751C28.6876 38.5664 29.2677 38.3026 29.8479 38.039L34.8838 40.5439C35.3846 40.8074 35.9913 40.7021 36.3869 40.3065L40.1308 36.5625C40.5264 36.1669 40.6316 35.5605 40.3683 35.0596L37.8633 30.0234C38.1269 29.4433 38.3644 28.8633 38.5753 28.2567L44.1033 26.4638C44.6309 26.3056 45 25.8046 45 25.2246V19.9512C45 19.371 44.6309 18.87 44.1033 18.7118ZM22.4121 29.1797C18.7734 29.1797 15.8203 26.2266 15.8203 22.5879C15.8203 18.9492 18.7734 15.9961 22.4121 15.9961C26.0508 15.9961 29.0039 18.9492 29.0039 22.5879C29.0039 26.2266 26.0508 29.1797 22.4121 29.1797Z" fill="#F9EA23"/>
<path d="M22.4121 10.7227C15.8731 10.7227 10.5469 16.0487 10.5469 22.5879C10.5469 29.1269 15.8731 34.4531 22.4121 34.4531C28.9511 34.4531 34.2773 29.1269 34.2773 22.5879C34.2773 16.0487 28.9511 10.7227 22.4121 10.7227ZM22.4121 26.543C20.2235 26.543 18.457 24.7763 18.457 22.5879C18.457 20.3993 20.2235 18.6328 22.4121 18.6328C24.6008 18.6328 26.3672 20.3993 26.3672 22.5879C26.3672 24.7763 24.6008 26.543 22.4121 26.543Z" fill="#E5DB59"/>
<path d="M45 19.9512V25.2246C45 25.8046 44.6308 26.3056 44.1032 26.4638L38.5752 28.2567C38.3643 28.8633 38.1268 29.4433 37.8632 30.0234L40.3682 35.0595C40.6315 35.5605 40.5262 36.1668 40.1306 36.5624L36.3867 40.3065C35.9911 40.7021 35.3844 40.8074 34.8836 40.5439L29.8477 38.039C29.2674 38.3026 28.6874 38.5663 28.081 38.751L26.2879 44.1034C26.1295 44.6308 25.6023 45 25.0487 45H22.412V29.1797C26.0507 29.1797 29.0038 26.2266 29.0038 22.5879C29.0038 18.9492 26.0507 15.9961 22.412 15.9961V0H25.0487C25.6023 0 26.1295 0.369141 26.2879 0.896397L28.0811 6.4248C28.6875 6.60938 29.2675 6.87296 29.8478 7.13681L34.8837 4.63192C35.3845 4.36816 35.9912 4.47372 36.3868 4.86914L40.1307 8.61328C40.5263 9.0087 40.6315 9.61506 40.3683 10.116L37.8632 15.1523C38.1268 15.7323 38.3644 16.3125 38.5752 16.9189L44.1033 18.7118C44.6308 18.87 45 19.371 45 19.9512Z" fill="#FFED04"/>
<path d="M34.2773 22.5879C34.2773 29.1269 28.9511 34.4531 22.4121 34.4531V26.543C24.6008 26.543 26.3672 24.7763 26.3672 22.5879C26.3672 20.3993 24.6008 18.6328 22.4121 18.6328V10.7227C28.9511 10.7227 34.2773 16.0487 34.2773 22.5879Z" fill="#DDCE13"/>
</svg>
