<svg width="100" height="100" viewBox="0 0 100 100" fill="none" xmlns="http://www.w3.org/2000/svg">
<path d="M89.6089 35.5691V96.5517C89.6089 98.4562 88.065 100 86.1606 100H13.7471C11.8427 100 10.2988 98.4562 10.2988 96.5517V35.5691L49.9538 3.44849L89.6089 35.5691Z" fill="#C890DE"/>
<path d="M82.7123 53.7932C82.7108 55.0035 82.6359 56.2126 82.4882 57.4139C81.1434 68.8622 73.2123 85.3966 49.9538 93.1035C26.6953 85.3966 18.7643 68.8622 17.4194 57.4139C17.2717 56.2126 17.1969 55.0035 17.1953 53.7932C17.1953 42.5346 23.8849 32.7588 33.5746 32.7588C39.8641 32.813 45.8282 35.5628 49.9538 40.3105C54.0794 35.5628 60.0435 32.813 66.3331 32.7588C76.0227 32.7588 82.7123 42.5346 82.7123 53.7932Z" fill="#DF4D60"/>
<path d="M82.7123 53.7933C82.7108 55.0036 82.6359 56.2127 82.4882 57.4139C77.7813 67.1553 65.0055 74.1381 49.9538 74.1381C34.9021 74.1381 22.1263 67.1553 17.4194 57.4139C17.2717 56.2127 17.1969 55.0036 17.1953 53.7933C17.1953 42.5346 23.8849 32.7588 33.5746 32.7588C39.8641 32.813 45.8282 35.5628 49.9538 40.3105C54.0794 35.5628 60.0435 32.813 66.3331 32.7588C76.0227 32.7588 82.7123 42.5346 82.7123 53.7933Z" fill="#FF5364"/>
<path d="M49.9539 79.3099C52.8574 79.3099 54.3091 81.0341 57.2125 81.0341C63.0194 81.0341 63.0194 74.1375 60.116 70.6893C57.2125 67.241 55.7608 60.3445 49.9539 60.3445C44.1471 60.3445 42.6953 67.241 39.7919 70.6893C36.8885 74.1375 36.8885 81.0341 42.6953 81.0341C45.5988 81.0341 47.0505 79.3099 49.9539 79.3099Z" fill="#6C2F7E"/>
<path d="M42.5208 56.7142C45.3346 56.2257 47.0876 52.7883 46.4363 49.0366C45.785 45.2849 42.976 42.6395 40.1622 43.128C37.3484 43.6165 35.5954 47.0538 36.2467 50.8056C36.898 54.5573 39.707 57.2027 42.5208 56.7142Z" fill="#6C2F7E"/>
<path d="M33.4916 68.6533C35.7648 67.9464 36.9198 65.162 36.0715 62.4342C35.2232 59.7064 32.6927 58.0682 30.4196 58.7752C28.1465 59.4821 26.9914 62.2665 27.8397 64.9942C28.6881 67.722 31.2185 69.3602 33.4916 68.6533Z" fill="#6C2F7E"/>
<path d="M63.7386 50.8865C64.3899 47.1348 62.6369 43.6974 59.8231 43.209C57.0093 42.7205 54.2003 45.3658 53.5489 49.1176C52.8976 52.8693 54.6507 56.3066 57.4645 56.7951C60.2782 57.2836 63.0873 54.6382 63.7386 50.8865Z" fill="#6C2F7E"/>
<path d="M72.1115 65.0241C72.9598 62.2963 71.8048 59.5119 69.5316 58.805C67.2585 58.098 64.7281 59.7362 63.8798 62.464C63.0314 65.1918 64.1865 67.9762 66.4596 68.6831C68.7327 69.39 71.2632 67.7518 72.1115 65.0241Z" fill="#6C2F7E"/>
<path d="M67.1948 15.5172V3.44827C67.1948 1.54384 68.7387 0 70.6431 0H77.5396C79.444 0 80.9878 1.54384 80.9878 3.44827V24.1379L67.1948 15.5172Z" fill="#6C2F7E"/>
<path d="M94.5208 39.0273L49.9537 7.66522L5.38658 39.0273C3.82903 40.0856 1.71042 39.6987 0.627486 38.1582C-0.455446 36.6176 -0.102164 34.4931 1.42107 33.3859L47.9727 0.627301C49.1623 -0.208775 50.7485 -0.208775 51.9382 0.627301L98.4898 33.3859C99.5195 34.0856 100.092 35.286 99.9879 36.5266C99.8836 37.7673 99.1188 38.8553 97.9867 39.3735C96.8547 39.8916 95.5313 39.7592 94.5243 39.0273H94.5208Z" fill="#EF73BA"/>
</svg>
