<svg width="60" height="60" viewBox="0 0 60 60" fill="none" xmlns="http://www.w3.org/2000/svg">
<path d="M34.9998 32.4998C30.8648 32.4998 27.4998 29.1348 27.4998 24.9998C27.4998 20.8649 30.8648 17.4999 34.9998 17.4999H39.9994V7.50017C39.9994 3.36523 36.6344 0.000244141 32.4995 0.000244141H5.62492C4.80232 0.000244141 4.03237 0.404903 3.565 1.08239C3.09992 1.75987 2.99509 2.62274 3.28989 3.38995L21.4149 50.8898C21.7824 51.8597 22.7121 52.4997 23.7499 52.4997H32.4995C36.6344 52.4997 39.9994 49.1347 39.9994 44.9998V32.4998H34.9998Z" fill="#FFED04"/>
<path d="M46.5422 37.3101C45.6097 36.9224 44.9995 36.0101 44.9995 34.9998V27.4999H34.9998C33.6196 27.4999 32.4995 26.3802 32.4995 25.0001C32.4995 23.6199 33.6196 22.5003 34.9998 22.5003H44.9995V15.0003C44.9995 13.9901 45.6097 13.0777 46.5422 12.69C47.4769 12.3028 48.5522 12.5179 49.2668 13.2329L59.267 23.2327C60.2443 24.21 60.2443 25.7902 59.267 26.7675L49.2668 36.7677C48.5522 37.4822 47.4769 37.6974 46.5422 37.3101Z" fill="#FFF78A"/>
<path d="M21.6149 5.2547L6.59264 0.247275C3.20248 -0.795042 0 1.70753 0 4.99973V49.9993C0 52.137 1.36 54.0445 3.38513 54.7444L18.4047 59.7518C18.9572 59.9216 19.4648 59.9995 19.9999 59.9995C22.7575 59.9995 24.9996 57.7569 24.9996 54.9994V9.99983C24.9996 7.86255 23.6396 5.95507 21.6149 5.2547Z" fill="#FFF78A"/>
</svg>
