<svg width="85" height="85" viewBox="0 0 85 85" fill="none" xmlns="http://www.w3.org/2000/svg">
<g clip-path="url(#clip0)">
<path d="M73.1879 65.1203C73.1454 65.1628 68.8974 69.4177 68.8463 69.449C70.0315 71.4733 70.7111 73.8291 70.7111 76.3425V83.5345C70.7111 84.3442 70.0553 85 69.2456 85H15.7542C14.9445 85 14.2887 84.3442 14.2887 83.5345V76.3425C14.2887 73.8291 14.9684 71.4733 16.1536 69.449C16.1043 69.419 16.4518 69.7601 11.812 65.1203C10.09 63.3983 9.93064 60.6614 11.4383 58.7508C13.2771 56.398 12.743 53.6832 11.0884 52.123C9.27299 50.4101 9.07148 47.5927 10.6249 45.6399L12.7353 42.9873C13.708 41.7636 14.0249 40.1405 13.5816 38.6402L12.2187 34.0183C11.5207 31.657 12.7243 29.1491 15.0032 28.2167L16.8039 27.4784C18.6065 26.7402 19.7844 24.9852 19.7844 23.0361V18.319C19.7844 8.2014 27.9858 0 38.1034 0H46.8965C57.0135 0 65.2154 8.1992 65.2154 18.319V23.0361C65.2154 24.9852 66.3934 26.7402 68.1959 27.4784L69.9967 28.2167C72.2756 29.1491 73.4791 31.657 72.7812 34.0183L71.4182 38.6402C70.9749 40.1405 71.2918 41.7636 72.2646 42.9873L74.3749 45.6399C75.9297 47.5974 75.7261 50.4083 73.9115 52.123C72.0997 53.8303 71.8945 56.6386 73.437 58.5914C75.1894 60.8334 74.817 63.4912 73.1879 65.1203Z" fill="#B28855"/>
<path d="M11.8123 65.1203C11.8548 65.1628 16.1028 69.4177 16.1539 69.449C14.9686 71.4733 14.289 73.8291 14.289 76.3425V83.5345C14.289 84.3442 14.9448 85 15.7545 85H69.2459C70.0556 85 70.7114 84.3442 70.7114 83.5345V76.3425C70.7114 73.8291 70.0318 71.4733 68.8465 69.449C68.8958 69.419 68.5483 69.7601 73.1881 65.1203C74.9101 63.3983 75.0695 60.6614 73.5618 58.7508C71.723 56.398 72.2572 53.6832 73.9117 52.123C75.7271 50.4101 75.9286 47.5927 74.3752 45.6399L72.2649 42.9873C71.2921 41.7636 70.9752 40.1405 71.4185 38.6402L72.7814 34.0183C73.4794 31.657 72.2758 29.1491 69.997 28.2167L68.1962 27.4784C66.3936 26.7402 65.2157 24.9852 65.2157 23.0361V18.319C65.2157 8.2014 57.0143 0 46.8968 0H38.1037C27.9866 0 19.7847 8.1992 19.7847 18.319V23.0361C19.7847 24.9852 18.6068 26.7402 16.8042 27.4784L15.0034 28.2167C12.7246 29.1491 11.521 31.657 12.219 34.0183L13.5819 38.6402C14.0252 40.1405 13.7083 41.7636 12.7356 42.9873L10.6252 45.6399C9.07048 47.5974 9.274 50.4083 11.0887 52.123C12.9004 53.8303 13.1056 56.6386 11.5631 58.5914C9.81075 60.8334 10.1832 63.4912 11.8123 65.1203Z" fill="#B28855"/>
<path d="M25.6635 32.7609C24.9227 32.8455 24.3642 33.4709 24.3642 34.2165V37.0283C24.3642 44.5867 28.9897 51.068 35.5662 53.7902L35.5387 53.8578V55.1089C35.5387 59.275 32.1805 62.6333 28.0371 62.682C22.8946 62.682 18.5268 65.396 16.1536 69.449C16.1025 69.4177 11.8545 65.1628 11.812 65.1203C10.09 63.3983 9.93064 60.6614 11.4383 58.7508C13.2771 56.398 12.743 53.6832 11.0884 52.123C9.27299 50.4101 9.07148 47.5927 10.6249 45.6399L12.7353 42.9873C13.708 41.7636 14.0249 40.1405 13.5816 38.6402L12.2187 34.0183C11.5207 31.657 12.7243 29.1491 15.0032 28.2167L16.8039 27.4784C18.6065 26.7402 19.7844 24.9852 19.7844 23.0361V18.319C19.7844 8.20177 27.9862 0 38.1034 0H46.8965C57.0135 0 65.2154 8.19939 65.2154 18.319V23.0361C65.2154 24.9852 66.3934 26.7402 68.1959 27.4784L69.9967 28.2167C72.2756 29.1491 73.4791 31.657 72.7812 34.0183L71.4182 38.6402C70.9749 40.1405 71.2918 41.7636 72.2646 42.9873L74.3749 45.6399C75.9295 47.5973 75.7265 50.4081 73.9115 52.123C72.2195 53.7173 71.7531 56.4371 73.5616 58.7508C75.0692 60.6614 74.9098 63.3983 73.1879 65.1203C73.1454 65.1628 68.8974 69.4177 68.8463 69.449C66.4926 65.4295 62.1428 62.682 56.9628 62.682C52.821 62.6333 49.4611 59.2771 49.4611 55.1089V53.8578L49.4337 53.7881C56.0102 51.0659 60.6357 44.5884 60.6357 37.0281V27.9945C60.6357 27.3786 60.2521 26.8278 59.6729 26.6182C56.4854 25.4656 53.7941 23.2446 52.0639 20.2773C51.5585 19.4106 50.3448 19.3093 49.6894 20.069C43.5564 27.1777 35.0437 31.6898 25.6635 32.7609Z" fill="#4FD7FE"/>
<path d="M59.673 26.6184C60.2522 26.8278 60.6358 27.3786 60.6358 27.9947V37.0283C60.6358 44.5886 56.0103 51.0662 49.4338 53.7884C37.538 58.726 24.3643 49.954 24.3643 37.0281V34.2164C24.3643 33.4708 24.9228 32.8454 25.6636 32.7607C35.0279 31.6915 43.546 27.1898 49.6895 20.0692C50.3449 19.3095 51.5586 19.4106 52.064 20.2775C53.7926 23.2422 56.482 25.4645 59.673 26.6184Z" fill="#B28855"/>
<path d="M70.7115 76.3425V83.5346C70.7115 84.3443 70.0557 85.0001 69.246 85.0001H15.7546C14.9449 85.0001 14.2891 84.3443 14.2891 83.5346V76.3425C14.2891 68.8041 20.3999 62.6821 27.9495 62.6821C29.0082 62.6821 30.0789 62.4654 31.0967 62.0024L31.1425 62.1014L41.6026 70.2002C42.1321 70.6087 42.8685 70.6087 43.3979 70.2002L53.858 62.1014L53.9038 62.0024C54.8381 62.4274 55.8731 62.6693 56.9631 62.6821C64.8069 62.6821 70.7115 68.9737 70.7115 76.3425Z" fill="#E8EF88"/>
<path d="M53.3319 1.16362C55.6731 2.04147 55.0021 5.51071 52.5017 5.49606C52.4107 5.49551 43.6901 5.49569 43.5991 5.49569C33.4819 5.49569 25.2801 13.6975 25.2801 23.8147V28.5318C25.2801 30.4809 24.1022 32.2359 22.2996 32.9741L20.4988 33.7124C18.22 34.6448 17.0164 37.1527 17.7144 39.514L19.0773 44.1359C19.5206 45.6362 19.2037 47.2593 18.231 48.483L16.1206 51.1356C14.5672 53.0884 14.7687 55.9058 16.5841 57.6186C18.3927 59.3243 18.6027 62.1302 17.0585 64.0871C15.7652 65.7418 15.6244 67.5464 16.2816 69.0935C16.3562 69.2691 16.132 69.4309 15.9913 69.2926C15.2065 68.5206 11.8497 65.158 11.812 65.1204C10.2151 63.5236 9.78134 60.8708 11.5629 58.5916C13.1086 56.6329 12.8954 53.827 11.0884 52.1231C9.27299 50.4103 9.07148 47.5929 10.6249 45.6401L12.7353 42.9875C13.708 41.7638 14.0249 40.1407 13.5816 38.6404L12.2187 34.0183C11.5207 31.657 12.7243 29.1491 15.0032 28.2167L16.8039 27.4784C18.6065 26.7402 19.7844 24.9852 19.7844 23.0361V18.319C19.7844 8.20177 27.9862 0 38.1034 0H46.8965C49.1422 0 51.3146 0.407231 53.3319 1.16362Z" fill="#FF6D8A"/>
<path d="M38.3728 48.7507C41.3394 50.6289 39.0211 55.175 35.7616 53.8696C29.0671 51.1884 24.3643 44.6478 24.3643 37.0282V34.2162C24.3643 33.4707 24.923 32.846 25.6631 32.7617C26.3436 32.6833 27.0773 32.5805 27.8553 32.4448C28.8867 32.2649 29.8556 33.0065 29.9406 34.0499C30.4929 40.8352 33.8311 45.8752 38.3728 48.7507Z" fill="#B28855"/>
<path d="M33.4864 63.9168C34.4216 64.6409 33.9266 66.1579 32.7438 66.1627C24.9516 66.1938 19.052 72.4494 19.052 79.8231V85.0001H15.7546C14.9452 85.0001 14.2891 84.3439 14.2891 83.5346V76.3425C14.2891 68.9307 20.2356 62.6821 28.0375 62.6821C29.1274 62.6693 30.1625 62.4274 31.0967 62.0024L31.1425 62.1014L33.4864 63.9168Z" fill="#E8EF88"/>
<path d="M51.514 63.9168C50.5788 64.6409 51.0738 66.1579 52.2566 66.1627C60.0488 66.1938 65.9484 72.4494 65.9484 79.8231V85.0001H69.2458C70.0552 85.0001 70.7113 84.3439 70.7113 83.5346V76.3425C70.7113 68.9307 64.7648 62.6821 56.963 62.6821C55.873 62.6693 54.838 62.4274 53.9037 62.0024L53.8579 62.1014L51.514 63.9168Z" fill="#E8EF88"/>
<path d="M41.6033 70.1998C42.1315 70.6087 42.8694 70.6087 43.3977 70.1998L53.8582 62.1014L53.904 62.0024C54.8382 62.4274 55.8733 62.6693 56.9632 62.6821L50.5608 85.0001H34.4401L28.0376 62.6821C29.1276 62.6693 30.1626 62.4274 31.0969 62.0024L31.1427 62.1014L41.6033 70.1998Z" fill="#D6F4FC"/>
<path d="M43.9657 69.7604V82.0689C43.9657 82.8786 43.3099 83.5344 42.5002 83.5344C41.6905 83.5344 41.0347 82.8786 41.0347 82.0689V69.7604L41.6026 70.2C42.132 70.6085 42.8684 70.6085 43.3978 70.2L43.9657 69.7604Z" fill="#FCBDED"/>
<path d="M31.0721 66.2616C30.5253 66.3226 29.9069 66.4289 29.1697 66.6262L28.0376 62.6821C29.1276 62.6693 30.1626 62.4274 31.0969 62.0024L31.1427 62.1014L32.0419 62.7979C33.4197 63.8649 32.804 66.0683 31.0721 66.2616Z" fill="#E8F8FC"/>
<path d="M53.9287 66.2616C54.4755 66.3226 55.094 66.4289 55.8311 66.6262L56.9632 62.6821C55.8733 62.6693 54.8382 62.4274 53.904 62.0024L53.8582 62.1014L52.9589 62.7979C51.5811 63.8649 52.1968 66.0683 53.9287 66.2616Z" fill="#FCBDED"/>
<path d="M49.6685 56.8657C45.1552 58.7549 40.1954 58.9015 35.332 56.8657C35.5804 55.8351 35.539 55.1675 35.539 53.8577L35.5665 53.7899C39.9781 55.6211 45.0138 55.6247 49.434 53.7899L49.4615 53.8577C49.4615 55.1681 49.4201 55.8354 49.6685 56.8657Z" fill="#B28855"/>
</g>
<defs>
<clipPath id="clip0">
<rect width="85" height="85" fill="white"/>
</clipPath>
</defs>
</svg>
