<svg width="110" height="110" viewBox="0 0 110 110" fill="none" xmlns="http://www.w3.org/2000/svg">
<g clip-path="url(#clip0)">
<path d="M91.5087 98.7961V108.103C91.5087 109.151 90.66 110 89.6122 110H20.388C19.3402 110 18.4915 109.151 18.4915 108.103V98.7961C18.4915 91.639 22.7469 85.4728 28.8656 82.692C26.3691 80.7056 22.5639 78.0358 19.7954 72.2918C15.9394 64.3031 16.5994 54.8786 21.5117 47.5015C24.1811 43.495 25.6036 38.7916 25.6036 33.9791V23.7069C25.6036 10.6136 36.2171 0 49.3105 0H60.6898C73.7831 0 84.3967 10.6136 84.3967 23.7069C84.3967 34.5853 84.1309 36.7156 85.4421 41.0414C87.2925 47.158 89.7364 47.9147 91.6202 54.1394C94.5814 63.9242 91.3058 74.5954 83.235 81.0207L81.1346 82.692C87.2533 85.4728 91.5087 91.639 91.5087 98.7961Z" fill="#FFDFBA"/>
<path d="M91.5089 98.796V108.103C91.5089 109.151 90.6597 110 89.6124 110H20.3883C19.3409 110 18.4917 109.151 18.4917 108.103V98.796C18.4917 89.0378 26.4025 81.1178 36.1699 81.1178C37.6232 81.1178 39.0029 80.8025 40.2428 80.2383L40.302 80.3663L53.8394 90.8467C54.5229 91.3758 55.4778 91.3758 56.1615 90.8467L69.6986 80.3663L69.7579 80.2383C70.9977 80.8025 72.3775 81.1178 73.8307 81.1178C83.5602 81.1178 91.5089 89.0001 91.5089 98.796Z" fill="#64FF8B"/>
<path d="M76.6748 34.6732C77.6817 34.7306 78.4699 35.558 78.4699 36.5665V47.9187C78.4699 57.7026 72.4839 66.0877 63.9732 69.6106C48.5834 75.9989 31.5303 64.6501 31.5303 47.9187V36.7315C31.5303 35.6198 32.4823 34.7415 33.5895 34.8418C44.9657 35.8733 56.1684 33.0005 65.5755 26.6631C66.6454 25.9424 68.1185 26.4763 68.4564 27.7214C69.6265 32.0346 72.8182 34.4535 76.6748 34.6732Z" fill="#FFEBD2"/>
<path d="M83.2344 81.0207L81.1339 82.692C78.9079 81.6821 76.4352 81.1179 73.8298 81.1179C68.4178 81.1179 64.0081 76.7475 64.0081 71.3174V69.6983L63.9725 69.6105C72.4833 66.0877 78.4693 57.7026 78.4693 47.9187V36.5665C78.4693 35.558 77.681 34.7306 76.6742 34.6732C72.8413 34.4549 69.6335 32.0624 68.4557 27.7217C68.1179 26.4766 66.6448 25.9427 65.5749 26.6634C56.1739 32.9964 44.9719 35.874 33.5888 34.842C32.4817 34.7417 31.5296 35.6201 31.5296 36.7317V47.919C31.5296 57.7028 37.5156 66.0879 46.0264 69.6108L45.9908 69.6985V71.3177C45.9908 76.7468 41.5823 81.1181 36.1691 81.1181C33.5637 81.1181 31.0911 81.6823 28.865 82.6923L26.7646 81.0209C16.568 72.8961 14.2976 58.3346 21.5111 47.5017C24.1805 43.4953 25.6029 38.7918 25.6029 33.9793V23.7069C25.6029 10.614 36.217 0 49.3098 0H60.6891C73.782 0 84.396 10.614 84.396 23.7069V33.9791C84.396 38.7859 85.8184 43.495 88.4878 47.5015C95.7277 58.374 93.3923 72.9338 83.2344 81.0207Z" fill="#F92F2F"/>
<path d="M64.2767 73.591C58.436 76.0359 52.0173 76.2255 45.7236 73.591C46.0451 72.2572 45.9915 71.3934 45.9915 69.6983L46.0271 69.6106C51.7362 71.9803 58.253 71.9851 63.9732 69.6106L64.0088 69.6983C64.0088 71.3941 63.9552 72.2577 64.2767 73.591Z" fill="#FFD6A6"/>
<path d="M71.3991 2.55134C73.8201 3.77935 72.7679 7.47455 70.0654 7.21875C69.3202 7.1481 68.5649 7.11207 67.8013 7.11207H56.422C43.3292 7.11207 32.7151 17.7261 32.7151 30.819V33.7036C32.7151 35.4067 31.5298 35.3517 31.5298 36.7315C31.5298 49.2539 31.5805 48.4612 31.3968 49.0014C29.537 54.4725 27.3036 55.2643 25.4917 61.2515C24.5047 64.5126 24.2131 67.8709 24.555 71.1299C24.834 73.7898 21.1303 75.0622 19.7949 72.2918C15.9665 64.3602 16.566 54.9282 21.5113 47.5015C24.1807 43.495 25.6031 38.7916 25.6031 33.9791V23.7069C25.6031 10.6141 36.2171 0 49.31 0H60.6893C64.5433 0 68.1823 0.919591 71.3991 2.55134Z" fill="#DF2727"/>
<path d="M50.5008 63.6411C54.0423 66.0118 51.3431 71.4952 47.3217 70.0839C38.4823 66.9821 31.5303 58.7323 31.5303 47.9187V36.7314C31.5303 35.6195 32.4833 34.7424 33.5904 34.8419C34.4988 34.9244 35.4964 34.9894 36.573 35.0224C38.5214 35.0816 40.0648 36.6906 40.0648 38.64V44.1258C40.0648 52.382 44.2742 59.4732 50.5008 63.6411Z" fill="#FFF3E4"/>
<path d="M44.212 83.3934C45.3371 84.2644 44.7426 86.0908 43.3197 86.0963C33.2838 86.1337 25.6038 94.1919 25.6038 103.774V110H20.3883C19.3409 110 18.4917 109.151 18.4917 108.103V98.796C18.4917 89.0376 26.4027 81.1178 36.1699 81.1178C37.6232 81.1178 39.0029 80.8025 40.2428 80.2383L40.302 80.3663L44.212 83.3934Z" fill="#7DF58A"/>
<path d="M65.7883 83.3934C64.6632 84.2644 65.2577 86.0908 66.6806 86.0963C76.7165 86.1337 84.3966 94.1919 84.3966 103.774V110H89.6121C90.6594 110 91.5086 109.151 91.5086 108.103V98.796C91.5086 89.0376 83.5976 81.1178 73.8304 81.1178C72.3772 81.1178 70.9974 80.8025 69.7576 80.2383L69.6983 80.3663L65.7883 83.3934Z" fill="#68F377"/>
</g>
<defs>
<clipPath id="clip0">
<rect width="110" height="110" fill="white"/>
</clipPath>
</defs>
</svg>
