<!-- Generated by IcoMoon.io -->
<svg version="1.1" xmlns="http://www.w3.org/2000/svg" width="1024" height="1024" viewBox="0 0 1024 1024">
<title></title>
<g id="icomoon-ignore">
</g>
<path fill="#3aebf1" d="M623.705 519.851c-7.127-24.098-21.856-45.246-41.988-60.286-20.133-15.041-44.589-23.168-69.719-23.168s-49.588 8.128-69.721 23.168c-20.132 15.041-34.861 36.188-41.988 60.286-16.8 4.975-32.261 13.677-45.233 25.455-12.972 11.78-23.119 26.333-29.688 42.577-6.567 16.245-9.387 33.761-8.247 51.245s6.208 34.487 14.829 49.742c8.621 15.254 20.571 28.366 34.963 38.362s30.851 16.616 48.155 19.369 35.006 1.566 51.788-3.471c16.781-5.037 32.211-13.794 45.141-25.62 21.43 19.748 49.538 30.656 78.68 30.537 28.002-0.003 55.067-10.091 76.237-28.419s35.030-43.67 39.042-71.384c4.010-27.714-2.096-55.945-17.2-79.522-15.106-23.579-38.199-40.927-65.051-48.869zM590.677 711.778c-12.464 0.046-24.764-2.833-35.912-8.408s-20.831-13.687-28.271-23.687c-1.689-2.249-3.879-4.074-6.395-5.33s-5.289-1.911-8.102-1.911-5.587 0.654-8.103 1.911c-2.516 1.256-4.705 3.082-6.395 5.33-7.826 10.441-18.082 18.816-29.878 24.397s-24.774 8.202-37.812 7.632c-13.036-0.569-25.738-4.312-37.002-10.901-11.263-6.588-20.749-15.826-27.636-26.909-6.885-11.085-10.964-23.682-11.88-36.699s1.357-26.061 6.622-38.001c5.266-11.94 13.365-22.415 23.594-30.517 10.23-8.102 22.282-13.585 35.111-15.974 3.607-0.669 6.926-2.415 9.52-5.008s4.34-5.915 5.008-9.522c3.428-18.409 13.189-35.037 27.591-47.004s32.536-18.518 51.26-18.518c18.726 0 36.86 6.551 51.261 18.518s24.161 28.596 27.589 47.004c0.668 3.607 2.414 6.928 5.008 9.522 2.594 2.593 5.915 4.339 9.522 5.008 19.658 3.663 37.238 14.537 49.295 30.491s17.721 35.833 15.88 55.745c-1.839 19.912-11.051 38.418-25.827 51.891-14.777 13.473-34.053 20.941-54.048 20.94h-0.003z"></path>
<path fill="#3aebf1" d="M376.306 392.671c8.379 2.997 17.207 4.548 26.107 4.585 12.356 0.035 24.501-3.203 35.2-9.387 18.31-10.569 30.672-28.574 34.812-50.693 3.599-21.763-0.461-44.102-11.491-63.204-11.029-19.104-28.344-33.791-48.991-41.554-21.225-7.481-43.001-5.771-61.308 4.798-18.305 10.569-30.672 28.576-34.811 50.696-3.6 21.763 0.461 44.102 11.491 63.205 11.029 19.102 28.343 33.789 48.991 41.554zM351.47 294.583c0.814-5.328 2.784-10.412 5.773-14.896s6.924-8.26 11.528-11.062c5.22-2.985 11.138-4.533 17.151-4.486 4.766 0.035 9.492 0.878 13.977 2.494 12.479 4.888 22.927 13.873 29.628 25.48s9.258 25.147 7.253 38.399c-0.692 5.366-2.613 10.499-5.614 15.002s-6.997 8.251-11.683 10.957c-4.686 2.705-9.931 4.293-15.331 4.639-5.399 0.347-10.805-0.556-15.798-2.639-12.479-4.889-22.927-13.875-29.628-25.481-6.701-11.608-9.26-25.148-7.254-38.4v-0.007z"></path>
<path fill="#3aebf1" d="M334.515 523.488c27.746-32.241 20.745-83.926-15.607-115.21-36.353-31.285-88.502-30.5-116.251 1.738-13.789 16.025-19.511 37.102-16.114 59.348 3.782 21.752 15.010 41.512 31.763 55.893s37.986 22.488 60.060 22.931c21.5 0 41.992-8.262 56.149-24.7zM307.025 499.831c-14.699 17.089-43.905 16.144-65.103-2.094-10.333-8.598-17.256-20.602-19.527-33.851-1.113-5.285-0.994-10.755 0.345-15.988 1.338-5.232 3.863-10.087 7.377-14.189 3.513-4.101 7.923-7.34 12.889-9.466s10.352-3.082 15.746-2.793c13.477 0.295 26.41 5.368 36.493 14.316 21.191 18.242 26.475 46.982 11.771 64.066h0.010z"></path>
<path fill="#3aebf1" d="M586.378 386.171c10.674 6.141 22.785 9.348 35.101 9.292 28.832 0 58.328-16.825 75.198-46.047 23.979-41.533 13.518-92.63-23.321-113.897-18.308-10.575-40.082-12.281-61.306-4.801-20.761 7.569-38.136 22.307-48.992 41.554-23.979 41.535-13.518 92.621 23.32 113.899zM594.467 290.404c6.528-11.747 17.034-20.779 29.628-25.47 4.484-1.617 9.209-2.46 13.976-2.493 6.013-0.048 11.932 1.501 17.153 4.485 19.52 11.272 24.026 40.144 10.045 64.358s-41.237 34.748-60.757 23.482-24.024-40.145-10.043-64.362z"></path>
<path fill="#3aebf1" d="M837.459 463.039c3.4-22.248-2.327-43.323-16.114-59.348-13.757-15.984-33.679-24.779-56.114-24.779h-0.171c-22.051 0.513-43.243 8.659-59.961 23.050s-27.927 34.135-31.715 55.865c-3.4 22.247 2.325 43.322 16.114 59.347 13.756 15.985 33.679 24.782 56.114 24.779h0.169c22.053-0.511 43.246-8.653 59.965-23.043 16.72-14.388 27.931-34.129 31.724-55.86l-0.011-0.011zM801.606 457.56c-2.481 13.174-9.368 25.113-19.528 33.856-10.161 8.745-22.992 13.775-36.387 14.265h-0.096c-5.393 0.304-10.785-0.639-15.756-2.757-4.97-2.116-9.385-5.349-12.904-9.449s-6.046-8.955-7.385-14.189c-1.338-5.233-1.453-10.706-0.335-15.991 2.482-13.171 9.368-25.107 19.526-33.849 10.159-8.744 22.988-13.773 36.381-14.266h0.096c5.394-0.303 10.785 0.64 15.756 2.757s9.385 5.351 12.904 9.451c3.52 4.099 6.046 8.954 7.385 14.189 1.338 5.233 1.453 10.706 0.336 15.991l0.008-0.007z"></path>
<path fill="#3aebf1" d="M1000.025 777.62c-9.249-13.873-21.929-25.118-36.808-32.641 55.6-107.666 70.862-231.67 43.026-349.605s-96.933-222.028-194.808-293.47-218.075-105.524-338.884-96.088c-120.809 9.436-234.258 61.768-319.855 147.541-85.595 85.773-137.693 199.33-146.88 320.158s25.143 240.957 96.788 338.685 175.879 166.61 293.871 194.202c117.993 27.593 241.964 12.076 349.517-43.748l81.057 54.037c2.979 1.987 6.479 3.046 10.058 3.046s7.081-1.059 10.058-3.046l122.364-81.577c20.836-13.932 36.461-34.383 44.427-58.148 5.485-16.28 7.152-33.602 4.873-50.629-2.28-17.026-8.446-33.3-18.020-47.563l-0.784-1.154zM511.997 983.467c-259.966 0-471.466-211.501-471.466-471.467s211.5-471.467 471.466-471.467c259.966 0 471.467 211.5 471.467 471.467 0.010 77.772-19.21 154.34-55.95 222.887-2.661-0.227-5.334-0.373-8.034-0.373-13.143-0.016-26.152 2.65-38.228 7.837 43.113-69.097 65.961-148.907 65.944-230.351 0-239.97-195.23-435.2-435.2-435.2s-435.2 195.23-435.2 435.2c0 239.97 195.23 435.2 435.2 435.2 57.879 0.126 115.192-11.394 168.527-33.871 6.956 8.391 15.094 15.729 24.158 21.781l6.483 4.323c-62.394 28.994-130.365 44.022-199.168 44.035zM674.193 777.613l-0.78 1.162c-9.572 14.264-15.737 30.536-18.017 47.561s-0.613 34.348 4.87 50.627c0.538 1.614 1.12 3.21 1.731 4.794-47.63 19.38-98.58 29.289-150.001 29.177-219.973 0-398.933-178.961-398.933-398.934s178.96-398.933 398.933-398.933c219.973 0 398.934 178.96 398.934 398.933 0.025 91.081-31.145 179.425-88.319 250.326-10.158-9.998-22.401-17.629-35.851-22.348s-27.778-6.409-41.957-4.948c-14.179 1.46-27.861 6.035-40.067 13.395-12.206 7.362-22.636 17.327-30.544 29.188zM979.541 865.494c-5.403 16.116-15.998 29.987-30.126 39.439l-112.31 74.874-112.308-74.871c-8.024-5.389-14.957-12.248-20.432-20.214-0.881-2.585-2.342-4.933-4.269-6.866-6.709-12.217-9.931-26.044-9.317-39.967 0.616-13.925 5.046-27.412 12.807-38.99l0.78-1.163c4.968-7.449 11.528-13.705 19.205-18.315s16.282-7.457 25.193-8.341c8.912-0.882 17.906 0.224 26.339 3.237 8.432 3.015 16.092 7.862 22.424 14.194l26.747 26.747c1.683 1.683 3.682 3.019 5.882 3.931 2.201 0.911 4.559 1.38 6.94 1.38s4.739-0.47 6.94-1.38c2.2-0.912 4.198-2.247 5.883-3.931l26.747-26.747c7.291-7.302 16.331-12.614 26.258-15.431s20.409-3.046 30.448-0.662c14.941 3.497 27.988 12.552 36.494 25.323l0.766 1.151c6.492 9.675 10.671 20.713 12.217 32.263 1.546 11.548 0.414 23.298-3.307 34.339z"></path>
</svg>
