<svg width="49" height="49" viewBox="0 0 49 49" fill="none" xmlns="http://www.w3.org/2000/svg">
<g clip-path="url(#clip0)">
<path d="M48.6419 37.9048L36.8973 24.5931C36.3702 23.9931 35.4633 23.9329 34.8715 24.4571L27.3929 33.3488C26.7958 33.8718 26.7356 34.7787 27.2572 35.3743L38.2458 48.5072C38.6174 48.9315 39.1931 49.0923 39.715 48.9446C40.2477 48.7947 40.6469 48.3517 40.7411 47.8063L41.7673 41.2899L47.8052 40.2637C48.317 40.1755 48.7417 39.8181 48.914 39.3287C49.0878 38.8397 48.9828 38.2943 48.6419 37.9048Z" fill="#FF5CA8"/>
<path d="M21.6034 33.343L14.1236 24.4512C13.5277 23.9271 12.6208 23.9873 12.0978 24.5873L0.354772 37.8989C0.0138311 38.2885 -0.0912175 38.8339 0.0826174 39.3232C0.255331 39.8122 0.680011 40.17 1.19142 40.2582L7.22966 41.2844L8.25547 47.812C8.34968 48.3574 8.74894 48.8004 9.28166 48.9503C10.7198 49.3567 11.3344 47.3832 16.3147 41.438C17.7304 39.7483 19.499 37.737 21.7395 35.3688C22.261 34.7729 22.2008 33.866 21.6034 33.343Z" fill="#FF7CB9"/>
<path d="M42.2978 21.8379L39.5419 18.2782L42.269 14.6321C42.5274 14.2587 42.6137 13.7996 42.499 13.3689C42.3838 12.9383 42.0679 12.594 41.666 12.4216L37.5321 10.7562L38.1351 6.33516C38.1927 5.87571 38.0488 5.44543 37.7333 5.12953C37.4174 4.81364 36.9867 4.67009 36.5276 4.69887L32.0203 5.2443L30.3548 0.911515C30.1825 0.509638 29.8382 0.193745 29.4075 0.0786026C28.9768 -0.0361657 28.5174 0.050191 28.1443 0.308513L24.4983 3.23455L20.9382 0.279728C20.5939 0.0214054 20.1344 -0.0649513 19.7038 0.0498171C19.2731 0.164959 18.9288 0.451693 18.7565 0.882729L16.9763 5.2443L12.5556 4.6413C12.0962 4.5841 11.6655 4.72766 11.3496 5.04318C11.0337 5.35907 10.8902 5.78973 10.919 6.24918L11.4644 10.7562L7.33048 12.4216C6.92861 12.594 6.61271 12.9383 6.49794 13.3689C6.38318 13.7996 6.46916 14.2587 6.72748 14.6321L9.45463 18.2782L6.72748 21.9242C6.46916 22.2973 6.3828 22.7568 6.49757 23.1874C6.61271 23.6181 6.92861 23.9624 7.33048 24.1347L11.4644 25.7998L10.919 30.3072C10.8902 30.7666 11.0337 31.1973 11.3496 31.5128C11.6655 31.8287 12.1246 31.9722 12.5552 31.9151L16.9763 31.3121L18.6417 35.446C18.8141 35.8478 19.1584 36.1637 19.589 36.2785C20.0197 36.3933 20.4788 36.3073 20.8522 36.049L24.4983 33.3214L28.0583 36.0777C28.4026 36.3361 28.8621 36.422 29.2927 36.3073C29.7234 36.1925 30.0677 35.9054 30.24 35.4747L32.0203 31.3121L36.4413 31.9151C36.9007 31.9726 37.331 31.8287 37.6469 31.5132C37.9628 31.1973 38.1064 30.7666 38.0776 30.3075L37.5321 25.8002L41.6948 24.02C42.1255 23.848 42.4126 23.5033 42.5274 23.0727C42.6421 22.642 42.5562 22.1825 42.2978 21.8379Z" fill="#FFE470"/>
<path d="M42.5276 23.0738C42.4128 23.5049 42.1257 23.8492 41.6951 24.0215L37.5324 25.8014L38.0778 30.3087C38.1066 30.7678 37.9631 31.1988 37.6472 31.5144C37.3313 31.8302 36.901 31.9738 36.4415 31.9162L32.0205 31.3132L30.2403 35.4763C30.068 35.907 29.7237 36.1937 29.293 36.3088C28.8623 36.4236 28.4029 36.3372 28.0586 36.0789L24.4985 33.323V3.2361L28.1446 0.310069C28.518 0.0513725 28.9771 -0.0346103 29.4078 0.080158C29.8384 0.1953 30.1827 0.51082 30.3551 0.912696L32.0205 5.24586L36.5275 4.70043C36.987 4.67164 37.4176 4.81519 37.7331 5.13071C38.049 5.44661 38.1926 5.87727 38.1354 6.33672L37.5324 10.7577L41.6663 12.4232C42.0682 12.5951 42.3841 12.9398 42.4988 13.3701C42.6136 13.8011 42.5276 14.2602 42.2693 14.6333L39.5421 18.2797L42.2981 21.8394C42.5564 22.1841 42.6424 22.6435 42.5276 23.0738Z" fill="#FFD400"/>
<path d="M28.8048 12.5378C28.8048 13.3308 28.1622 13.9734 27.3693 13.9734C26.5767 13.9734 25.9341 13.3308 25.9341 12.5378C25.9341 11.7449 26.5767 11.1023 27.3693 11.1023C28.1622 11.1023 28.8048 11.7449 28.8048 12.5378Z" fill="#FF9F00"/>
<path d="M23.0626 12.5378C23.0626 13.3308 22.42 13.9734 21.6271 13.9734C20.8345 13.9734 20.1919 13.3308 20.1919 12.5378C20.1919 11.7449 20.8345 11.1023 21.6271 11.1023C22.42 11.1023 23.0626 11.7449 23.0626 12.5378Z" fill="#FDBF00"/>
<path d="M17.8951 17.4185C17.8951 18.211 17.2525 18.854 16.4596 18.854C15.667 18.854 15.0244 18.211 15.0244 17.4185C15.0244 16.6255 15.667 15.9829 16.4596 15.9829C17.2525 15.9829 17.8951 16.6255 17.8951 17.4185Z" fill="#FDBF00"/>
<path d="M33.9723 17.4185C33.9723 18.211 33.3297 18.854 32.5371 18.854C31.7442 18.854 31.1016 18.211 31.1016 17.4185C31.1016 16.6255 31.7442 15.9829 32.5371 15.9829C33.3297 15.9829 33.9723 16.6255 33.9723 17.4185Z" fill="#FF9F00"/>
<path d="M24.4986 15.4087C20.5367 15.4087 17.3213 18.6241 17.3213 22.5861C17.3213 23.9068 17.6948 24.9401 18.4122 25.6579C19.7041 26.9211 21.6563 26.9211 23.7521 26.8923H25.9342C27.7716 26.8923 29.4363 26.7776 30.5851 25.6579C31.3025 24.9401 31.676 23.9068 31.676 22.5861C31.676 18.6241 28.4606 15.4087 24.4986 15.4087Z" fill="#FDBF00"/>
<path d="M31.6759 22.5858C31.6759 23.9066 31.3024 24.9399 30.585 25.6577C29.4362 26.7773 27.7715 26.8921 25.9341 26.8921H24.4985V15.4084C28.4605 15.4084 31.6759 18.6239 31.6759 22.5858Z" fill="#FF9F00"/>
</g>
<defs>
<clipPath id="clip0">
<rect width="49" height="49" fill="white"/>
</clipPath>
</defs>
</svg>
