<?xml version="1.0" encoding="utf-8"?>
<!-- Generator: Adobe Illustrator 23.0.0, SVG Export Plug-In . SVG Version: 6.00 Build 0)  -->
<svg version="1.1" id="Layer_1" xmlns="http://www.w3.org/2000/svg" xmlns:xlink="http://www.w3.org/1999/xlink" x="0px" y="0px"
	 viewBox="0 0 65 65" style="enable-background:new 0 0 65 65;" xml:space="preserve">
<style type="text/css">
	.st0{fill:#FFDC64;}
	.st1{fill:#FFC850;}
</style>
<g>
	<path class="st0" d="M45.4,33.7l12.8-11.3c0.9-0.8,0.4-2.3-0.8-2.4l-17-1.6L33.7,2.8c-0.5-1.1-2-1.1-2.5,0l-6.7,15.7l-17,1.6
		c-1.2,0.1-1.7,1.6-0.8,2.4l12.8,11.3l-3.7,16.6c-0.3,1.2,1,2.1,2,1.5l14.7-8.7l14.7,8.7c1,0.6,2.3-0.3,2-1.5L45.4,33.7z"/>
	<path class="st1" d="M19.1,12.2c0.4,0.4,1-0.1,0.8-0.5c-1.4-3-3.8-8.2-4.7-9.4c-0.7-1-2-1.2-3-0.5c-1,0.7-1.2,2-0.5,3
		C12.6,6,16.7,9.9,19.1,12.2z"/>
	<path class="st1" d="M45.9,12.2c2.4-2.3,6.5-6.2,7.4-7.4c0.7-1,0.5-2.3-0.5-3c-1-0.7-2.3-0.5-3,0.5c-0.9,1.2-3.3,6.4-4.7,9.4
		C44.9,12.1,45.5,12.6,45.9,12.2z"/>
	<path class="st1" d="M63.5,37.5c-1.4-0.5-7.1-1.2-10.4-1.6c-0.5-0.1-0.7,0.6-0.3,0.9c2.9,1.6,7.9,4.3,9.3,4.8
		c1.1,0.4,2.3-0.2,2.7-1.4C65.3,39.1,64.6,37.9,63.5,37.5z"/>
	<path class="st1" d="M2.8,41.6c1.4-0.5,6.4-3.2,9.3-4.8c0.5-0.3,0.2-0.9-0.3-0.9c-3.3,0.4-9,1.2-10.4,1.6c-1.1,0.4-1.7,1.6-1.4,2.7
		C0.5,41.3,1.7,41.9,2.8,41.6z"/>
	<path class="st1" d="M32.1,51.1c-0.6,3.3-1.7,8.9-1.7,10.4c0,1.2,1,2.1,2.1,2.1c1.2,0,2.1-1,2.1-2.1c0-1.5-1-7.1-1.7-10.4
		C32.9,50.6,32.2,50.6,32.1,51.1z"/>
	<path class="st1" d="M31.3,2.8l-6.7,15.7l-17,1.6c-1.2,0.1-1.7,1.6-0.8,2.4l12.8,11.3l-3.7,16.6c-0.3,1.2,1,2.1,2,1.5l2-1.2
		C23,29.9,32,14.7,36.2,8.5l-2.5-5.7C33.3,1.7,31.7,1.7,31.3,2.8z"/>
</g>
</svg>
